<svg xmlns="http://www.w3.org/2000/svg" width="255" height="291" fill="none">
<path fill="#F9A332" d="M241.042 120.589s23.858 31.115-37.588 71.835c-61.448 40.718-147.114 54.191-164.161 10.342-17.047-43.851-1.131-30.868 64.367-38.373 65.497-7.505 109.107-75.61 119.645-68.187 10.533 7.425 17.737 24.383 17.737 24.383Z"/>
<path fill="#BF6700" d="M92.191 224.205c-18.49 0-34.173-4.363-44.18-14.014 4.427-2.09 7.932-4.212 10.861-5.984 3.338-2.02 6.042-3.657 7.722-3.657.18 0 .348.019.504.058.853.215 1.751 1.139 2.746 2.825 2.878 4.876 6.806 7.542 11.104 7.542.173 0 .346-.005.52-.013 4.55-.22 8.745-3.524 11.224-8.837 1.47-3.151 3.39-5.065 5.868-5.852.919-.291 1.944-.437 3.07-.437 4.137 0 9.663 1.962 16.483 5.862l.076.043c2.836 1.685 6.017 2.707 9.775 2.804.308.009.611.012.91.012 10.395 0 15.3-4.753 18.264-7.626.772-.748 1.939-1.878 2.332-1.91.004 0 .349.051 1.131.833-3.488 4.087-10.652 12.009-21.597 12.009-4.696 0-10.088-1.46-16.182-5.306-2.678-1.689-5.42-2.394-7.897-2.394-7.075 0-11.996 5.758-7.106 10.796 2.01 2.071 6.049 2.791 10.692 2.791 7.504 0 16.584-1.881 21.212-2.979 9.291-2.269 18.762-5.284 28.174-8.964 1.721.766 3.482 1.171 5.145 1.171 1.646 0 3.196-.397 4.518-1.232 1.127-.712 2.926-2.321 3.388-5.491 11.211-5.156 22.183-11.225 32.505-18.065 23.978-15.891 34.965-30.316 39.449-42.003a32.74 32.74 0 0 1-.489 5.994c-.605 3.506-1.776 7.055-3.495 10.634-5.976 10.003-16.773 21.499-35.465 33.886-34.946 23.158-77.727 37.504-111.262 37.504Zm76.802-37.776a36.667 36.667 0 0 0-.343-.75 26.264 26.264 0 0 1-1.053-2.59h.159c11.95 0 16.497-5.91 22.006-13.069 1.947-2.531 3.959-5.147 6.542-7.904 4.658-4.974 11.79-5.277 18.688-5.57 4.537-.192 8.885-.377 12.192-2.011-8.038 7.981-18.619-.007-24.95 10.017-7.201 11.402-13.604 19.403-27.205 21.003-2.211.26-4.213.548-6.036.874Zm63.727-41.048c.034-.615.034-1.259.005-1.932-.241-5.428-.27-9.132.32-10.822.317-.914.73-1.155 2.909-2.104 1.433-.626 3.269-1.427 5.561-2.857.331 1.006.636 2.144.879 3.407-8.988 2.158-5.484 4.352-9.674 14.308Z"/>
<path fill="#6D184E" d="M221.385 98.349c-.622 0-2.165.356-5.538 2.724-3.931 2.76-9.044 7.319-14.966 12.594-21.693 19.332-54.477 48.547-96.914 53.409-15.517 1.779-28.22 2.411-38.426 2.919-15.757.786-26.167 1.303-28.901 5.522-2.617 4.036.175 13.42 5.17 26.271 4.106 10.561 12.638 17.962 25.358 22.001 32.936 10.455 89.623-3.682 134.793-33.616 23.762-15.746 37.75-32.341 40.453-47.992 2.117-12.263-3.292-19.65-3.523-19.957a2.773 2.773 0 0 1-.335-.577c-.094-.222-7.056-16.36-16.808-23.232-.005-.002-.103-.066-.363-.066ZM92.239 232.657c-9.907.001-18.883-1.237-26.705-3.721-14.356-4.556-24.03-13.032-28.757-25.191-6.048-15.555-8.583-25.128-4.67-31.166 4.239-6.538 14.513-7.05 33.165-7.977 10.13-.505 22.736-1.133 38.081-2.891 40.737-4.668 72.752-33.198 93.937-52.075C211.457 97.01 219.258 90.055 224.858 94c10.399 7.329 17.504 22.876 18.546 25.252 1.196 1.718 6.589 10.361 4.366 23.64-2.918 17.464-17.329 34.887-42.824 51.783-22.182 14.7-48.19 26.274-73.232 32.591-14.236 3.59-27.531 5.391-39.475 5.391Z"/>
<path fill="#48C75A" d="M28.01 175.153s-15.603-2.4-17.003 8.2c-1.4 10.602 15.802 6.402 15.602 14.603-.2 8.201-.4 19.003 17.203 11.602 17.602-7.401 22.403-16.78 28.004-7.289 5.6 9.489 14.602 7.889 18.802-1.113 4.201-9.001 12.458-10.693 28.634-1.445 8.654 4.947 13.35-2.102 19.226-9.151 5.103-6.125 11.097-12.25 21.351-10.506 22.053 3.75 23.004-6.901 34.804-19.503 11.802-12.602 36.606 1.2 35.806-17.004-.8-18.202 1.1-11.349 12.05-19.301 10.953-7.952 10.802-26.554-10.651-24.903-21.453 1.65-74.809 78.61-203.829 75.81Z"/>
<path fill="#B6E9BD" d="M230.622 128.319c.809-3.363 4.674-5.409 12.693-11.649 1.415-1.103 2.832-2.934 4.023-4.773-.292 3.818-2.57 7.867-6.193 10.498-3.006 2.18-5.231 3.15-7.021 3.93-1.474.642-2.621 1.246-3.502 1.994ZM174.383 177.647c7.064-3.83 10.428-11.935 18.263-20.902 9.873-11.3 28.254-4.078 35.374-10.394-.21 1.248-.64 2.22-1.302 2.94-2.076 2.262-6.858 2.466-11.921 2.68-7.452.316-15.899.676-21.835 7.014-2.732 2.919-4.908 5.747-6.828 8.242-3.907 5.076-6.769 8.799-11.751 10.42Z"/>
<path fill="#539256" d="M34.13 209.744c-1.242 0-2.236-.247-2.961-.743-2.498-1.703-2.372-6.851-2.272-10.989.136-5.533-5.127-7.17-8.97-8.364-5.08-1.58-7.104-2.564-6.65-5.994.242-1.834 1.028-3.227 2.403-4.262 1.818-1.368 4.459-1.932 6.864-2.113 6.816 10.587 17.232 16.472 29.403 16.472 1.543 0 3.116-.095 4.71-.286 15.079-2.063 30.243-5.281 45.38-9.622.589.804 1.169 1.602 1.741 2.391 1.536 2.114 3.025 4.166 4.531 6.084-2.434-.708-4.661-1.059-6.694-1.059-1.598 0-3.077.217-4.44.651-3.714 1.179-6.618 3.964-8.63 8.278-1.749 3.746-4.477 6.064-7.297 6.201-.08.003-.16.004-.24.004-2.64 0-5.193-1.853-7.22-5.288-1.671-2.832-3.442-4.402-5.572-4.937a6.589 6.589 0 0 0-1.622-.199c-2.95 0-6.047 1.872-10.092 4.32-3.495 2.115-7.844 4.748-13.578 7.158-3.628 1.526-6.598 2.297-8.794 2.297Zm133.839-31.196c-.504 0-1.025-.013-1.564-.039-1.052-5.663-.871-12.352.792-19.34 19.678-9.1 38.038-19.781 54.819-31.905 8.146-6.092 12.9-14.339 13.981-23.628l.408-.083c1.173 6.955-.009 16.032-9.368 24.594-18.802 17.201-40.006 21.802-49.608 31.604-5.785 5.907-6.413 13.48-5.999 18.568a24.482 24.482 0 0 1-3.461.229Z"/><path fill="#6D184E" d="M24.463 177.208c-2.802 0-6.463.438-8.784 2.184-1.374 1.035-2.16 2.429-2.403 4.263-.453 3.429 1.57 4.413 6.65 5.993 3.843 1.194 9.106 2.832 8.97 8.364-.1 4.138-.225 9.287 2.272 10.99 2.01 1.371 6.075.834 11.755-1.554 5.734-2.41 10.083-5.043 13.578-7.159 4.79-2.898 8.252-4.991 11.714-4.121 2.13.536 3.9 2.105 5.572 4.937 2.088 3.538 4.735 5.399 7.46 5.284 2.82-.137 5.549-2.454 7.297-6.2 2.012-4.315 4.916-7.1 8.63-8.279 5.642-1.794 13.235.11 23.213 5.814 6.013 3.438 9.261-.021 14.953-6.957 5.515-6.725 12.378-15.095 24.872-12.97 15.73 2.678 19.349-2.029 25.921-10.569 1.92-2.495 4.096-5.324 6.829-8.241 5.935-6.339 14.383-6.699 21.835-7.015 5.062-.215 9.844-.418 11.919-2.681 1.08-1.177 1.551-3.023 1.434-5.642-.563-12.824.106-14.767 5.975-17.323 1.788-.781 4.016-1.752 7.02-3.932 4.959-3.602 7.398-9.855 5.672-14.546-1.697-4.618-6.953-6.83-14.804-6.222-5.256.403-13.853 6.772-24.739 14.837-15.473 11.463-36.666 27.165-65.865 39.812-34.467 14.93-72.644 22.055-113.45 21.167a2.67 2.67 0 0 1-.295-.025c-.704-.107-1.853-.209-3.201-.209Zm9.644 37.103c-2.195 0-4.027-.509-5.519-1.527-4.555-3.107-4.396-9.636-4.268-14.884.043-1.775-1.399-2.526-5.754-3.88-4.313-1.341-10.832-3.37-9.829-10.965.407-3.077 1.821-5.544 4.204-7.331 5.356-4.017 13.93-3.037 15.255-2.856 92.594 1.966 145.02-36.873 176.354-60.083 12.37-9.164 20.542-15.218 27.111-15.725 14.104-1.08 18.303 6.08 19.455 9.207 2.446 6.652-.617 14.992-7.281 19.83-3.41 2.476-5.994 3.602-7.882 4.426-2.178.949-2.59 1.19-2.909 2.105-.589 1.689-.559 5.392-.319 10.821.17 3.895-.69 6.819-2.634 8.937-3.358 3.662-9.063 3.904-15.1 4.16-6.897.293-14.03.595-18.686 5.57-2.584 2.757-4.596 5.373-6.544 7.904-6.632 8.62-11.871 15.428-30.319 12.291-9.871-1.679-15.306 4.948-20.565 11.359-5.206 6.35-11.112 13.546-20.764 8.028-8.68-4.962-15.259-6.786-19.553-5.425-2.478.787-4.398 2.701-5.868 5.851-2.48 5.314-6.675 8.618-11.224 8.838-4.5.224-8.63-2.457-11.625-7.529-.994-1.686-1.892-2.61-2.746-2.825-1.611-.403-4.53 1.362-8.225 3.599-3.623 2.192-8.131 4.921-14.173 7.461-4.196 1.764-7.707 2.643-10.592 2.643Z"/><path fill="#DB2839" d="M195.069 61.534c-2.782 1.113-5.173 2.869-7.136 5.117-11.946 8.224-37.969 24.784-70.986 37.833-32.897 13.334-63.16 19.304-77.48 21.594-2.973-.27-5.914.109-8.696 1.222-12.69 5.079-17.252 23.502-10.19 41.145 7.063 17.644 21.091 24.512 35.766 22.751 32.656-4.465 61.843-13.868 85.714-23.977 24.253-9.154 51.868-22.488 78.583-41.788 11.839-8.851 17.253-23.501 10.191-41.147-7.063-17.643-23.076-27.828-35.766-22.75Z"/><path fill="#A92142" d="M51.855 189.182c-13.1 0-23.584-7.687-29.149-21.587a46.759 46.759 0 0 1-1.145-3.193c.872-.302 1.767-.601 2.679-.89-.647 2.952-.756 5.986.892 8.492 1.641 2.494 4.606 3.91 9.064 4.33.653.061 1.29.09 1.913.09 9.254 0 15.209-6.486 19.632-11.303 2.708-2.95 5.267-5.736 7.365-5.736h.046c1.226.024 2.678 1.016 4.317 2.947 5.806 6.849 13.4 10.573 21.495 10.572a25.649 25.649 0 0 0 4-.308c2.243 2.423 4.259 4.887 6.135 7.323-14.364 4.04-28.742 7.051-43.025 9.005a35.42 35.42 0 0 1-4.22.258Zm10.52-24.141c-.356 0-.67.189-.962.612-1.156 1.675-3.625 4.018-6.224 6.267-1.71 1.48-1.2 4.221.905 5.048 3.764 1.48 7.777 2.194 11.894 2.194 1.458 0 2.93-.089 4.409-.267l.135-.019c2.857-.392 3.526-4.217.987-5.582-6.472-3.479-9.346-8.253-11.144-8.253Zm106.554-11.743c2.747-7.771 7.351-15.655 14.145-22.695 1.044.087 2.104.14 3.169.14a27.6 27.6 0 0 0 2.775-.134 115.89 115.89 0 0 0-6.215 7.798c-1.521 2.084.137 4.718 2.351 4.718.418 0 .859-.095 1.301-.307a341.142 341.142 0 0 0 19.265-9.975c-11.613 7.481-23.905 14.314-36.791 20.455Zm34.957-36.457c.135-.475.252-.942.353-1.396 10.828-5.678 19.857-8.85 27.026-10.706-.097.565-.21 1.125-.339 1.68-10.209.619-19.32 4.855-27.04 10.422Z"/><path fill="#6D184E" d="M37.637 128.283c-2.1 0-4.118.381-6.015 1.142-5.436 2.176-9.388 7.25-11.13 14.286-1.811 7.311-1.025 15.791 2.215 23.883 6.15 15.363 18.31 23.135 33.368 21.329 28.277-3.867 56.919-11.881 85.094-23.811a.76.76 0 0 1 .083-.034c28.627-10.805 54.887-24.77 78.053-41.502 12.114-9.059 15.553-23.079 9.403-38.44-6.58-16.445-21.292-26.08-32.789-21.475l-.849-2.127.849 2.127c-2.381.951-4.487 2.464-6.263 4.495a2.36 2.36 0 0 1-.425.38c-12.533 8.628-38.48 25.05-71.441 38.076-32.828 13.308-62.938 19.325-77.962 21.727a2.416 2.416 0 0 1-.57.019 17.765 17.765 0 0 0-1.621-.075Zm14.31 65.467c-14.952.002-27.257-8.881-33.49-24.454-3.593-8.976-4.449-18.453-2.41-26.685 2.106-8.506 7.033-14.699 13.873-17.437 2.97-1.19 6.153-1.658 9.46-1.401 14.923-2.4 44.482-8.349 76.709-21.412 32.355-12.786 57.857-28.878 70.315-37.438 2.216-2.47 4.844-4.323 7.814-5.515 13.841-5.538 31.222 5.237 38.741 24.026 6.877 17.18 2.786 33.564-10.943 43.831-23.51 16.983-50.114 31.134-79.106 42.08-28.531 12.079-57.551 20.195-86.253 24.119a39.404 39.404 0 0 1-4.71.286Z"/><path fill="#FCAF15" d="M24.809 146.549S9.407 152.75 5.606 163.352c-2.258 6.297 4.237 2.784 14.117-.729 6.753-2.401 15.086-4.803 23.288-4.072 7.488.667 10.36-1.578 12.445-3.823 3.539-3.813 4.81-7.627 22.56 2.822 28.205 16.603 30.805 44.207 50.007 44.706 7.691.202 12.108-2.278 15.106-4.756 4.484-3.711 5.781-7.42 10.097-2.143 7.202 8.8 20.853 7.2 13.352-8.702-7.501-15.903-2.75-50.908 31.256-70.31 34.003-19.403 52.206-15.203 53.807-18.002 1.601-2.801-6.002-17.204-30.205-17.603-24.203-.4-85.011 61.409-196.627 65.809Z"/><path fill="#D18126" d="M128.834 199.978c-.247 0-.496-.003-.751-.01-8.841-.231-13.773-7.022-20.6-16.424-2.768-3.813-5.83-8.03-9.548-12.255 4.792-1.795 9.02-5.028 12.148-9.407 2.959-4.142 5.521-5.725 8.687-5.725 3.069 0 6.703 1.489 11.81 3.582 3.228 1.32 6.885 2.818 11.143 4.191 2.773.892 5.494 1.332 8.092 1.332 4.62 0 8.853-1.39 12.3-4.094a31.25 31.25 0 0 0-1.256 2.655c-4.143 2.218-8.216 3.043-12.133 3.043-5.646 0-10.965-1.714-15.687-3.427-4.723-1.714-8.849-3.427-12.113-3.427-1.817 0-3.367.531-4.603 1.889-4.413 4.844-8.766 9.682-11.426 11.173 7.9 10.754 12.725 19.798 23.605 20.081.266.006.526.011.784.011 7.343 0 11.507-2.764 14.314-5.526 2.805-2.763 4.254-5.525 6.166-5.525.96 0 2.037.696 3.461 2.436 2.568 3.139 5.955 4.951 8.912 5.264 1.31 3.927 1.089 6.729-.042 8.503-2.234-.334-4.96-1.798-7.098-4.411-1.26-1.541-2.998-3.327-5.266-3.457a5.642 5.642 0 0 0-.261-.008c-2.209 0-3.819 1.553-5.518 3.2-2.778 2.693-6.557 6.336-15.12 6.336ZM7.655 164.434c.031-.095.066-.199.106-.311 1.386-3.866 4.589-7.136 7.908-9.658 2.081-.043 4.237-.207 6.372-.369 1.32-.099 2.568-.195 3.792-.261.12-.007.23-.01.327-.01.314 0 .512.031.626.058.111.783-.509 2.808-1.02 4.395-4.193 1.167-8.069 2.627-11.407 3.885-2.342.882-5.131 1.932-6.704 2.271Z"/><path fill="#F8CE36" d="M43.29 158.571c12.257.987 11.892-5.97 16.495-7.495-8.714-1.954-6.39 6.495-16.495 7.495ZM5.376 166.258c1.946 3.007 16.75-6.901 32.41-7.778-12.811-.778-25.78 5.777-32.41 7.778Z"/><path fill="#FED78A" d="M163.041 189.866c-.295 0-.598-.017-.904-.049a28.628 28.628 0 0 0-1.285-3.163c-2.621-5.558-3.568-14.241.007-22.83.308-.167.618-.339.927-.52-1.271 9.047-.363 17.785 2.722 24.327.302.64.57 1.262.801 1.863a6.682 6.682 0 0 1-2.268.372Z"/><path fill="#E8C093" d="M163.051 198.391c-.305 0-.625-.024-.955-.073 1.129-1.773 1.352-4.576.04-8.501.306.032.608.05.904.05.811 0 1.578-.123 2.269-.374 1.604 4.141 1.559 7.275-.193 8.383-.547.343-1.255.515-2.065.515Zm-2.194-34.568c.369-.886.787-1.773 1.255-2.654l.015-.012a62.127 62.127 0 0 0-.342 2.147c-.308.181-.619.355-.928.519Z"/><path fill="#D18126" d="M169.996 140.087a34.23 34.23 0 0 0-1.382-6.62c-1.022-3.283-.429-4.02-.402-4.05.267-.308.978-.424 1.92-.424 1.799 0 4.437.424 6.412.742l.868.138a67.013 67.013 0 0 0-7.416 10.214Z"/><path fill="#6D184E" d="M61.647 148.509c3.562 0 8.774 1.914 17.53 7.069 13.97 8.223 21.919 19.171 28.306 27.967 6.826 9.401 11.758 16.193 20.599 16.424 9.097.218 13.014-3.556 15.871-6.327 1.765-1.71 3.436-3.321 5.781-3.192 2.266.131 4.005 1.917 5.265 3.457 3.293 4.024 7.975 5.321 10.117 3.969 2.006-1.27 1.775-5.194-.609-10.244-4.358-9.242-4.371-22.868-.032-35.56 3.745-10.954 12.377-26.392 32.223-37.717 24.492-13.972 41.084-15.925 49.057-16.862 1.379-.163 2.903-.343 3.741-.533-.171-.781-.775-2.347-2.505-4.351-2.409-2.793-9.727-9.318-25.594-9.58-7.363-.143-19.006 6.33-35.134 15.263-34.156 18.908-85.734 47.466-160.945 50.528-2.224.969-14.45 6.639-17.557 15.304-.04.111-.075.215-.106.31 1.572-.338 4.362-1.389 6.704-2.271 7.667-2.888 18.171-6.84 28.855-5.893 7.256.65 9.205-1.553 11.267-3.882 1.977-2.232 3.863-3.879 7.166-3.879Zm67.228 56.048c-.299 0-.604-.003-.912-.012-11.1-.289-17.164-8.64-24.185-18.311-6.457-8.892-13.775-18.97-26.923-26.711-7.151-4.209-12.017-6.318-14.874-6.444-1.846-.07-2.542.616-4.072 2.344-2.338 2.641-5.543 6.255-15.1 5.408-9.647-.861-19.582 2.883-26.837 5.616-6.392 2.408-9.914 3.736-12.06 1.623-1.796-1.767-.791-4.57-.46-5.491 4.1-11.437 19.835-17.884 20.501-18.153.245-.097.503-.154.765-.164 74.35-2.932 125.488-31.243 159.326-49.978 16.752-9.272 28.856-15.968 37.429-15.832 17.17.284 27.356 7.53 31.162 14.217.909 1.6 2.25 4.611.994 6.809-1.041 1.821-3.146 2.067-7.339 2.561-7.675.903-23.641 2.782-47.321 16.295-31.5 17.972-37.921 51.227-30.32 67.344 5.044 10.696.92 14.8-1.089 16.068-4.458 2.817-11.533.647-16.105-4.941-1.39-1.697-1.979-1.783-1.985-1.784-.392.032-1.559 1.162-2.33 1.91-2.966 2.872-7.869 7.626-18.265 7.626Z"/><path fill="#F8CE36" d="M145.802 176.079s-6.981 12.982-17.3 11.4c-7.829-1.201 5.253.327 8.651-9.15 3.924-10.953 10.669-5.251 8.649-2.25Z"/><path fill="#48C75A" d="M34.41 123.045s-27.604 1.501-30.905 16.803C.205 155.15 14.607 152.15 25.71 151.55c11.101-.6-10.502 20.703 8.701 22.503 8.028.753 13.38-3.843 17.748-8.439 6.08-6.397 10.247-12.794 17.057-4.763 11.701 13.802 30.004 12.303 39.005-.299 9.002-12.602 16.502-4.501 34.205 1.2 17.703 5.701 29.705-9.302 24.004-27.605-2.831-9.086 3.287-7.819 11.23-6.553 8.058 1.285 17.993 2.569 22.373-6.948 8.701-18.903-9.901-22.203 12.303-26.703 22.203-4.503 31.804-6.001 28.204-18.153-3.6-12.153-12.002-21.153-40.207-9.151-28.202 12-53.707 64.509-165.922 56.406Z"/><path fill="#539256" d="M29.977 160.137c1.19-3.669 2.201-6.836.452-9.109-.908-1.182-2.352-1.779-4.294-1.779-.178 0-.362.004-.55.014-1.273.069-2.603.17-3.89.268-2.32.176-4.76.361-7.02.361-.261 0-.52-.002-.776-.006 1.544-5.52 4.415-10.906-.715-10.906-.142 0-.29.002-.444.012-2.184.117-4.494.327-6.773.474 1.18-3.941 4.384-6.794 8.24-8.861.442 2.251.954 4.475 1.533 6.673 9.167 4.64 19.05 7.797 29.458 9.564-4.163 3.574-8.499 10.343-15.22 13.295Zm46.053-2.081a23.8 23.8 0 0 1-7.77-1.314c-1.368-1.048-2.741-1.664-4.141-1.866-2.81-1.577-5.48-3.761-7.873-6.584l-.098-.115c3.267.248 6.576.373 9.92.373 10.21 0 20.755-1.146 31.483-3.366a25.164 25.164 0 0 0-2.3 2.81c-4.653 6.516-11.792 10.062-19.22 10.062Zm60.814-7.636c-2.315 0-4.789-.391-7.386-1.227-8.148-2.623-14.136-5.756-19.102-7.144 8.049-2.269 16.158-5.114 24.269-8.502l.101-.043.028-.012a.932.932 0 0 0 .073-.03.554.554 0 0 1 .032-.012l.075-.032.024-.01c.032-.015.066-.029.099-.041l.002-.002.106-.044c.002-.002.004-.002.006-.002l.097-.042c.004-.002.012-.004.018-.008.028-.013.059-.025.089-.037l.014-.006.101-.042.002-.002.213-.091.008-.002.097-.042.01-.004c.143-.061.284-.119.425-.181l.004-.002c.323-.137.643-.274.963-.413l.006-.002.425-.184.004-.004.424-.181.008-.006.419-.184.01-.004.094-.042.011-.004c.102-.044.209-.093.312-.137a.042.042 0 0 0 .012-.008c.03-.012.06-.024.089-.038.004-.002.012-.004.016-.008.036-.014.064-.029.098-.043h.002c.069-.032.139-.062.208-.092a.071.071 0 0 1 .018-.008c.026-.012.056-.027.083-.037l.02-.01.084-.036c.006-.004.013-.006.021-.01.066-.028.131-.058.197-.089.008-.004.02-.01.03-.012l.071-.032c.01-.006.02-.008.03-.014l.068-.03.033-.014.08-.037a.159.159 0 0 1 .018-.008l.099-.044c.008-.004.016-.008.024-.01.022-.012.049-.022.073-.032l.036-.019c.02-.008.038-.018.059-.026a.428.428 0 0 0 .044-.02l.052-.022c.014-.008.03-.014.045-.02.016-.008.032-.016.048-.022.03-.014.064-.031.095-.043l.04-.02.056-.024a1.29 1.29 0 0 1 .037-.018l.058-.026.034-.014c.022-.012.043-.021.065-.031l.006-.002c.08-.038.163-.074.246-.112l.01-.004.08-.037.002-.002a212.997 212.997 0 0 0 12.856-6.388c3.226 14.433-4.634 26.183-17.324 26.183Zm36.548-34.498c-1.579 0-3.183-.129-4.762-.318 7.561-4.983 14.55-10.392 20.868-16.195-.205 2.464-.888 5.325-2.432 8.678-2.871 6.235-8.125 7.835-13.674 7.835Zm33.731-36.116c3.435-4.722 6.475-9.626 9.082-14.695-.169-.365-.34-.73-.512-1.092 2.466-.494 4.731-.742 6.79-.742 1.948 0 3.713.222 5.287.667 2.629 10.03-4.38 12.473-20.647 15.862Z"/><path fill="#A4E3AD" d="m88.966 168.327-.222-.002c4.058-1.78 7.693-4.673 10.484-8.581 3.705-5.187 7.172-7.06 11.125-7.06.863 0 1.753.089 2.672.255-2.241 1.165-4.439 3.164-6.669 6.282-3.929 5.503-9.939 8.814-16.487 9.086-.302.013-.602.02-.903.02ZM151.222 160.649c8.917-4.113 12.342-15.367 9.688-28.885-1.052-5.359 1.281-6.693 5.244-6.693.145 0 .29 0 .436.004a5.119 5.119 0 0 0-1.838 1.344c-2.063 2.379-1.279 5.939-.509 8.409 2.639 8.47 1.226 16.752-3.686 21.617-2.532 2.508-5.72 3.923-9.335 4.204Zm35.193-34.488c-.497 0-1.006-.013-1.523-.037 4.712-.7 9.002-2.958 11.629-8.667 9.221-20.031-10.491-23.53 13.038-28.299 16.154-3.274 26.008-5.051 29.366-10.014.235 2.059-.213 3.161-.633 3.856-2.3 3.827-11.034 5.591-24.251 8.262l-2.162.436c-7.539 1.529-10.905 2.991-12.412 5.395-1.39 2.21-.797 4.536-.172 6.999.927 3.639 2.079 8.167-1.34 15.597-2.299 4.991-6.34 6.472-11.54 6.472Z"/><path fill="#6D184E" d="M26.134 149.25c1.943 0 3.386.596 4.294 1.779 1.762 2.289.724 5.485-.477 9.187-1.098 3.383-2.343 7.22-.993 9.273.817 1.241 2.722 2.009 5.666 2.285 8.094.757 13.222-4.824 17.745-9.751 3.447-3.754 6.692-7.32 10.875-7.216 2.633.052 5.158 1.545 7.717 4.564 5.135 6.056 11.85 9.232 18.908 8.936 6.549-.272 12.558-3.583 16.488-9.085 7.933-11.105 15.493-8.006 25.958-3.72 3.151 1.29 6.72 2.753 10.813 4.071 6.945 2.235 13.134 1.126 17.429-3.128 4.911-4.864 6.323-13.148 3.686-21.617-.77-2.47-1.554-6.028.51-8.409 2.446-2.822 7.112-2.073 12.517-1.205 9.569 1.536 17.171 2.107 20.683-5.526 3.422-7.429 2.268-11.959 1.342-15.597-.627-2.461-1.219-4.788.17-7 1.509-2.401 4.874-3.864 12.415-5.393l2.161-.437c13.217-2.67 21.95-4.433 24.251-8.26.575-.954 1.204-2.67.053-6.56-1.815-6.124-4.503-9.847-8.462-11.712-6.053-2.85-15.695-1.5-28.653 4.016-6.682 2.843-13.428 8.235-21.237 14.48-12.192 9.744-27.363 21.875-50.124 30.733-26.614 10.358-57.845 14.08-95.468 11.382-2.017.141-25.874 2.084-28.658 14.991-.753 3.493-.512 5.977.716 7.385 2.43 2.788 9.233 2.272 15.235 1.817 1.288-.099 2.617-.199 3.89-.269.189-.01.372-.014.55-.014Zm9.976 27.174c-.623 0-1.26-.03-1.913-.091-4.458-.419-7.423-1.835-9.064-4.329-2.558-3.889-.884-9.052.463-13.201.529-1.631 1.313-4.048 1.189-4.919-.15-.035-.442-.077-.953-.048-1.224.066-2.471.161-3.792.261-7.42.562-15.094 1.145-19.032-3.372-2.26-2.591-2.83-6.309-1.74-11.359 3.627-16.816 31.82-18.541 33.018-18.606.096-.004.193-.004.29.004 83.585 6.03 117.668-21.22 142.558-41.115 8.071-6.454 15.043-12.028 22.304-15.117 14.412-6.132 25.009-7.423 32.396-3.944 5.224 2.463 8.688 7.085 10.9 14.552 1.25 4.221 1.08 7.563-.519 10.222-3.342 5.553-12.347 7.372-27.268 10.387l-2.157.437c-5.589 1.132-8.765 2.257-9.447 3.342-.33.522-.065 1.645.39 3.434.986 3.877 2.478 9.737-1.62 18.642-5.247 11.394-17.477 9.43-25.569 8.13-3.009-.481-7.555-1.215-8.331-.317-.028.029-.621.768.4 4.049 3.198 10.262 1.389 20.068-4.836 26.233-5.486 5.436-13.526 6.977-22.054 4.231-4.259-1.371-7.916-2.87-11.143-4.191-10.377-4.252-14.672-6.011-20.497 2.143-4.756 6.66-12.055 10.668-20.023 10.999-8.504.352-16.524-3.393-22.59-10.55-1.639-1.931-3.091-2.922-4.317-2.946h-.047c-2.098 0-4.656 2.786-7.365 5.735-4.423 4.818-10.378 11.304-19.631 11.304Z"/><path fill="#F9A332" d="M134.626 133.547c37.018-15.47 66.53-39.159 81.577-68.436-16.721-36.153-53.037-61.387-95.326-62.07-58.75-.945-107.629 46.252-108.653 105.002a107.157 107.157 0 0 0 3.516 29.235c33.298 16.856 76.096 14.148 118.886-3.731Z"/><path fill="#FFF6AF" d="M135.439 4.265h-.002.002Zm-.11-.015c-.003 0-.003-.003-.005-.003.002 0 .002.003.005.003Zm-.058-.01-.002-.001.002.002Zm-.053-.008-.009-.002.009.002Zm-.06-.009h-.002.002Zm-.167-.024-.005-.002.005.002Zm-.276-.042h-.007.007Zm-.049-.007-.015-.002.015.002Zm-.055-.009-.018-.002a.045.045 0 0 0 .018.002Zm-.051-.006c-.011-.002-.018-.002-.029-.005.009.003.02.003.029.005Zm-.055-.01c-.011 0-.02-.001-.031-.004.011.003.018.003.031.005Zm-.06-.008-.029-.002.029.002Zm-.059-.007-.027-.004c.009 0 .015.002.027.004Zm-.056-.008c-.011-.003-.022-.003-.033-.005.011.002.02.002.033.005Zm-.059-.01a.171.171 0 0 1-.031-.004c.013.003.02.005.031.005Zm-.058-.008-.028-.002.028.002Zm-.059-.007-.027-.004.027.004Zm-.058-.009-.035-.004.035.004Zm-.057-.006c-.016-.005-.029-.005-.047-.009.018.004.031.004.047.009Zm-.058-.009a.512.512 0 0 1-.055-.009l.055.009Zm-.068-.009c-.018-.004-.031-.004-.049-.009l.049.01Zm-.064-.009a1.104 1.104 0 0 0-.044-.006l.044.006Zm-.062-.008c-.011-.003-.026-.005-.04-.007l.04.007Zm-.062-.01c-.013-.002-.022-.004-.035-.004a.19.19 0 0 1 .035.005Zm-.057-.008c-.013-.002-.025-.002-.038-.005.013.003.025.003.038.005Zm-.058-.007-.039-.006.039.006Zm-.055-.009-.044-.004.044.004Zm-.062-.006-.042-.007.042.007Zm-.057-.01Zm-.06-.008Zm-.057-.007-.049-.006.049.006Zm-.06-.008-.055-.007.055.007Zm-.055-.007-.06-.007.06.007Zm-.06-.007Zm-.364-.048-.055-.007.055.007Zm-.06-.007-.057-.006.057.006Zm-.057-.009-.119-.013.119.013Zm-.124-.013Zm-.057-.009-.058-.006.058.006Zm-.06-.006Zm-9.938-.769h-.06.06Zm-.062 0c-.02-.002-.038-.002-.059-.002.02 0 .04 0 .059.002Zm-.061-.002Zm-.064-.002-.053-.003.053.003Zm-.062-.003c-.016 0-.038 0-.053-.002.016.002.036.002.053.002Zm-.062-.002h-.055.055Zm-.059 0Zm-.062-.002Zm-.376-.011h-.055.055Zm-.058 0-.056-.002.056.002Zm-.068-.002h-.049.049Zm-.063 0Zm-.062-.002h-.044.044Zm-.062-.003h-.039.039Zm-.063 0c-.012 0-.025 0-.037-.002.012.002.026.002.037.002Zm-.06-.002h-.038.038Zm-.06 0-.039-.002.039.002Zm-.061-.002h-.036.036Zm-.061 0c-.012 0-.025 0-.037-.002.011.002.025.002.037.002Zm-.06-.002h-.046.046Zm-.06 0Zm-.061-.002c-.053 0-.108 0-.161-.003.054.003.107.003.161.003Zm-2.556-.011c.141 0 .281-.003.421-.003h.047c-.157.003-.311.002-.468.002Z"/><path fill="#FCD199" d="M22.96 63.333C40.22 27.987 76.412 3.513 117.92 3.04l.4-.009.468-.002h.377c.515 0 1.032.005 1.55.011l.162.002c.021 0 .04 0 .061.003H121.02c.013 0 .025 0 .037.002H121.14c.013 0 .027 0 .039.002H121.262c.012 0 .025 0 .037.002h.082l.044.002h.075a.364.364 0 0 0 .049.003h.012c.021 0 .034 0 .056.002h.066l.368.01h.066a.475.475 0 0 0 .056.003h.009l.052.002h.009c.015 0 .037 0 .053.002h.007c.02 0 .037 0 .057.003.002 0-.001-.003.002 0h.061c.021.002.04.002.06.002h.003c3.352.104 6.664.362 9.935.768h.002l.058.007.059.007.005.002.117.013c.02.005.037.005.057.009h.005l.055.007h.004l.36.046.06.009.055.006.013.003.049.006.011.002a.326.326 0 0 1 .062.007l.042.007.015.002c.018.002.029.004.042.004a.05.05 0 0 0 .018.003l.044.006.015.002c.011.003.027.005.04.007.007 0 .013 0 .02.002.013.002.024.002.038.005.008.002.013.002.022.002l.035.006c.007 0 .015.003.024.003a.223.223 0 0 0 .038.004c.004.002.015.002.02.005l.044.004c.004.002.009.002.013.002l.049.007.013.002c.02.002.035.004.055.009h.011l.049.006c.004.003.013.003.02.005.011 0 .024.002.037.004.009.002.02.002.029.005l.026.002a.16.16 0 0 0 .031.004c.011.003.02.005.029.005l.029.004c.009.002.02.002.029.005l.026.004a.17.17 0 0 1 .033.004c.009 0 .02.003.029.005l.026.002a.15.15 0 0 0 .031.004c.011.003.018.005.029.005.009.002.02.004.031.004.009.002.018.002.029.005l.026.004c.011.002.018.002.029.005a.17.17 0 0 1 .033.004l.018.002.039.007c.005 0 .009 0 .016.002l.042.007h.006c.089.013.184.026.272.04h.004c.038.006.076.01.113.017a.442.442 0 0 1 .053.009h.004l.051.006.007.003.051.006h.002c.02.005.033.007.053.01h.004c.018.004.038.006.053.008.02.002.038.007.056.009h.002c33.45 5.123 61.791 25.752 77.468 54.316-18.199-25.42-46.517-43.093-79.063-47.154-.689 3.933-7.186 7.018-15.102 7.018-7.777 0-14.183-2.977-15.06-6.81-19.192 2.678-36.938 10.15-51.947 21.169l.08-.15v.002c-.157.144-.313.29-.468.435a116.146 116.146 0 0 0-28.386 30.24Z"/><path fill="#5B6D54" d="m134.624 133.548.101-.043c-.033.015-.069.028-.101.043Zm.129-.054.072-.03a5.272 5.272 0 0 1-.072.03Zm.104-.044.074-.031-.074.031Zm.1-.041.097-.042a4.686 4.686 0 0 1-.097.042Zm.102-.043.105-.044-.105.044Zm.111-.047c.031-.013.065-.026.096-.041a2.511 2.511 0 0 1-.096.041Zm.115-.048.088-.037-.088.037Zm.102-.045c.034-.013.067-.026.1-.041-.032.015-.066.028-.1.041Zm.103-.042.213-.091c-.07.031-.141.06-.213.091Zm.222-.094.097-.041c-.034.013-.063.028-.097.041Zm.107-.046.426-.18-.426.18Zm.429-.183.964-.413-.964.413Zm.969-.416.424-.183-.424.183Zm.429-.186.422-.184-.422.184Zm.431-.188.42-.183-.42.183Zm.43-.188.094-.042-.094.042Zm.103-.045.313-.138-.313.138Zm.326-.144.088-.04a7.527 7.527 0 0 1-.088.04Zm.106-.047.098-.043-.098.043Zm.098-.044Zm.226-.1.084-.037-.084.037Zm.103-.046.085-.038c-.026.013-.057.025-.085.038Zm.104-.047Zm.229-.101a.905.905 0 0 1 .071-.032l-.071.032Zm.102-.045.067-.031c-.023.01-.044.019-.067.031Zm.099-.046.08-.035-.08.035Zm.099-.044.098-.044-.098.044Zm.123-.054a2.3 2.3 0 0 1 .072-.033l-.072.033Zm.109-.05.058-.027-.058.027Zm.102-.046c.018-.007.034-.016.053-.023a.499.499 0 0 0-.053.023Zm.097-.044.049-.022-.049.022Zm.143-.064c.014-.008.028-.012.041-.019l-.041.019Zm.097-.044a.403.403 0 0 0 .036-.018l-.036.018Zm.095-.044.034-.015-.034.015Zm.097-.045.007-.002-.007.002Zm.253-.114c.002-.002.005-.002.01-.004-.003.001-.008.002-.01.004Zm.091-.041.003-.002-.003.002Z"/><path fill="#BF6700" d="M66.087 148.543c-8.19 0-16.166-.739-23.84-2.253a103.261 103.261 0 0 1-11.112-3.401c-6.666-2.467-11.44-8.38-12.524-15.406a107.68 107.68 0 0 1-1.236-18.294c.523-30.01 13.538-56.994 33.971-76.097l.389-.288a105.858 105.858 0 0 0-12.588 49.289c-.155 18.296 12.852 34.016 30.83 37.427 7.425 1.408 15.123 2.095 23.025 2.095 21.823 0 45.194-5.241 68.559-15.003 16.582-6.93 31.652-15.515 44.596-25.506-15.201 20.298-37.792 37.175-64.844 49.519l-.004.002a1.226 1.226 0 0 1-.081.037c-.004.002-.006.004-.01.004-.083.038-.162.075-.245.111-.002.002-.004.004-.006.004l-.063.029-.034.014-.059.028c-.01.004-.026.012-.039.016-.02.009-.034.017-.054.025-.014.008-.027.012-.041.02-.032.012-.063.028-.095.043-.016.006-.032.014-.049.022-.014.006-.03.012-.044.02-.018.008-.035.014-.051.022a.44.44 0 0 0-.044.021c-.021.008-.041.018-.059.026-.012.006-.024.01-.037.018-.026.01-.048.02-.072.031-.011.004-.017.008-.025.012-.03.012-.067.028-.097.044l-.02.006c-.027.015-.053.025-.079.037a.25.25 0 0 0-.033.016l-.069.03-.03.013c-.024.01-.047.02-.071.032-.008.004-.02.008-.03.014l-.197.087-.02.01a1.67 1.67 0 0 1-.085.037c-.006.004-.012.006-.018.008-.029.012-.057.026-.083.039a.054.054 0 0 0-.019.008l-.208.091h-.002c-.033.016-.063.028-.098.044-.004.002-.012.004-.018.008l-.087.039-.014.006-.312.138-.008.004c-.033.012-.065.028-.095.04-.004.002-.006.004-.01.004-.14.063-.282.124-.42.185-.002.002-.008.004-.008.006l-.423.182-.004.002-.426.184-.004.002c-.322.14-.642.276-.964.414l-.004.002-.425.182c-.005 0-.007.002-.011.004l-.097.041a19.252 19.252 0 0 0-.221.093c0 .002 0 .002-.004.002a4.935 4.935 0 0 1-.202.085l-.019.008-.095.041-.006.002-.105.044-.004.002-.097.041-.027.01-.073.032c-.01.004-.022.008-.032.014-.026.011-.049.019-.073.031-.01.002-.02.008-.028.01-.035.016-.067.028-.102.042-23.36 9.763-46.719 14.997-68.537 14.997Z"/><path fill="#D19982" d="m51.346 33.09.469-.433v-.002l-.08.15-.39.286Z"/><path fill="#FCE69F" d="M66.668 43.9c-1.108 3.481-3.02 6.03-4.239 5.643-1.218-.389-1.308-3.572-.201-7.056 1.106-3.482 3.02-6.03 4.239-5.643 1.14.364 1.306 3.189.376 6.472l-.175.583ZM84.745 46.142c-.625 3.603-2.175 6.386-3.435 6.167-1.259-.219-1.78-3.361-1.156-6.962.626-3.602 2.176-6.385 3.435-6.166 1.181.204 1.727 2.982 1.25 6.361l-.094.6ZM108.083 45.419c.509 3.62-.113 6.745-1.379 6.922-1.267.179-2.726-2.654-3.235-6.274-.508-3.618.116-6.743 1.38-6.92 1.187-.167 2.558 2.308 3.141 5.672l.093.6ZM127.6 37.935c1.934 3.1 2.63 6.21 1.547 6.886-1.084.676-3.569-1.32-5.501-4.421-1.936-3.1-2.633-6.21-1.549-6.886 1.017-.634 3.275 1.073 5.17 3.91l.333.511ZM142.567 25.523c2.593 2.579 3.981 5.446 3.078 6.353-.902.904-3.773-.472-6.364-3.05-2.591-2.578-3.981-5.445-3.079-6.352.846-.848 3.433.298 5.929 2.626l.436.423Z"/><path fill="#BF6700" d="M69.075 103.001c-1.217 0-2.2-.984-2.2-2.199a2.199 2.199 0 1 1 4.4 0 2.199 2.199 0 0 1-2.2 2.199ZM104.562 82.1a2.201 2.201 0 1 1 .002-4.403 2.201 2.201 0 0 1-.002 4.402Z"/><path fill="#E99335" d="M111.834 104.997a2.2 2.2 0 1 1 0-4.4 2.2 2.2 0 0 1 0 4.4ZM133.066 78.064a2.2 2.2 0 0 1 0-4.4 2.201 2.201 0 1 1 0 4.4Z"/><path fill="#BF6700" d="M155.781 96.071a2.201 2.201 0 1 1 0-4.402 2.201 2.201 0 0 1 0 4.402ZM158.724 62.779a2.2 2.2 0 1 1 0-4.4 2.2 2.2 0 0 1 0 4.4ZM174.54 43.923a2.2 2.2 0 1 1-.002-4.4 2.2 2.2 0 0 1 .002 4.4Z"/><path fill="#E99335" d="M69.515 80.15a2.2 2.2 0 1 1 0-4.4 2.2 2.2 0 0 1 0 4.4Z"/><path fill="#BF6700" d="M196.122 64.647a2.2 2.2 0 1 1 .002-4.4 2.2 2.2 0 0 1-.002 4.4Z"/><path fill="#E99335" d="M181.855 88.676a2.201 2.201 0 1 1 0-4.399 2.201 2.201 0 0 1 0 4.399Z"/><path fill="#6D184E" d="M119.132 5.318c-56.858 0-103.626 45.748-104.62 102.766-.105 6.048.31 12.123 1.234 18.056.954 6.124 5.126 11.26 10.89 13.406 29.919 11.129 67.956 8.247 107.106-8.112 33.242-13.89 59.053-33.763 74.639-57.471 3.561-5.412 3.715-12.469.392-17.974-18.777-31.137-51.65-50.075-87.932-50.658a109.47 109.47 0 0 0-1.709-.013ZM66.033 150.841c-14.721 0-28.467-2.345-40.994-7.005-7.314-2.721-12.609-9.233-13.817-16.993a110.272 110.272 0 0 1-1.287-18.839c.506-29.02 12.36-56.188 33.377-76.494C64.325 11.21 91.885.27 120.914.754c18.814.302 37.293 5.479 53.444 14.967a109.98 109.98 0 0 1 38.336 37.902c4.226 7.008 4.035 15.978-.485 22.854-16.091 24.475-42.615 44.939-76.703 59.181-19.747 8.253-39.159 13.198-57.698 14.698-3.989.323-7.916.485-11.775.485Z"/><path fill="#FCAF15" d="M184.849 218.342c-1.318 7.114-8.156 11.81-15.27 10.492-7.113-1.32-11.812-8.157-10.49-15.271.774-4.18 2.449-3.231 5.183-2.282 1.918.667 4.355 1.333 7.367.226 8.6-3.158 14.529-.279 13.21 6.835Z"/><path fill="#FED78A" d="M169.555 228.829h-.001.001Zm8.764-9.046a13.26 13.26 0 0 0 .73-2.517c.609-3.284-.341-5.651-2.371-6.953.449-.043.882-.063 1.302-.063 4.92 0 7.798 2.891 6.882 8.013.293-1.636.186-3.038-.238-4.2-1.491 2.291-3.73 4.4-6.305 5.72Zm6.534-1.467.002-.009-.002.009Zm.006-.025Z"/><path fill="#D18126" d="M169.578 228.834a.143.143 0 0 0-.022-.004l.022.004Zm14.434-7.72c.373-.872.656-1.8.837-2.772l.005-.026-.005.026c-.181.972-.464 1.9-.837 2.772Z"/><path fill="#6D184E" d="M159.09 213.563c0-.004 0-.009.002-.014-.002.005-.002.01-.002.014Z"/><path fill="#D18126" d="M169.555 228.83c-7.101-1.33-11.786-8.16-10.467-15.267l.001-.012c.405-2.163 1.05-2.944 1.961-3.065 1.317 4.638 4.915 9.602 9.977 10.541a9.887 9.887 0 0 0 1.808.165c1.897 0 3.766-.53 5.484-1.409-1.916 4.755-6.473 7.953-11.577 8.173.885.386 1.822.687 2.813.874Zm15.299-10.523Zm.009-.042v-.002.002Z"/><path fill="#D3B392" d="M172.065 229.056Z"/><path fill="#D29D78" d="M171.983 229.056a13.236 13.236 0 0 1-2.427-.226h-.001a13.208 13.208 0 0 1-2.813-.874c5.106-.22 9.66-3.418 11.578-8.173 2.575-1.32 4.814-3.429 6.304-5.72.424 1.162.532 2.564.24 4.2v.002c-.003.009-.003.017-.005.026l-.004.016-.001.009-.006.026a13.075 13.075 0 0 1-.835 2.772 13.12 13.12 0 0 1-11.946 7.942h-.084Z"/><path fill="#6D184E" d="M161.642 212.811c-.083.217-.195.582-.304 1.171a10.75 10.75 0 0 0 1.718 8.094 10.75 10.75 0 0 0 6.94 4.507c2.84.526 5.713-.083 8.094-1.72a10.738 10.738 0 0 0 4.508-6.938c.258-1.392.294-3.279-.994-4.367-1.666-1.406-5.181-1.367-9.177.099-4.102 1.508-7.354.345-9.507-.425-.407-.145-.924-.331-1.278-.421Zm10.359 18.536c-.943 0-1.893-.087-2.842-.263a15.288 15.288 0 0 1-9.876-6.416 15.286 15.286 0 0 1-2.447-11.521c.293-1.576.84-3.505 2.497-4.458 1.716-.989 3.529-.339 5.13.233 1.888.674 3.841 1.372 6.387.438 5.703-2.095 10.698-1.84 13.706.699 2.318 1.956 3.221 5.047 2.542 8.701a15.281 15.281 0 0 1-6.415 9.878 15.28 15.28 0 0 1-8.682 2.709Z"/><path fill="#E5525F" d="M201.885 128.112c.925.425 2.006.316 2.883-.198 3.622-2.128 15.191-9.16 17.139-13.308 2.172-4.625-26.56 10.503-20.022 13.506Z"/>
</svg>