<svg xmlns="http://www.w3.org/2000/svg" xml:space="preserve" style="enable-background:new 0 0 512 512" viewBox="0 0 512 512"><path d="M450.021 277.558c11.906 0 21.558 9.651 21.558 21.558 0 7.326-3.663 13.788-9.248 17.684 5.892 10.75 9.248 23.086 9.248 36.211a42.909 42.909 0 0 1-8.108 25.153 37.547 37.547 0 0 1 8.108 23.353c0 20.836-16.891 37.726-37.726 37.726h16.168c11.906 0 21.558 9.651 21.558 21.558 0 23.812-19.304 43.116-43.116 43.116H83.537c-23.812 0-43.116-19.304-43.116-43.116 0-11.906 9.651-21.558 21.558-21.558h16.168c-20.836 0-37.726-16.891-37.726-37.726a37.552 37.552 0 0 1 8.108-23.353 42.91 42.91 0 0 1-8.108-25.153c0-13.123 3.355-25.461 9.248-36.211-5.586-3.896-9.248-10.357-9.248-17.684 0-11.906 9.651-21.558 21.558-21.558-11.906 0-21.558-9.651-21.558-21.558h431.158c0 11.906-9.652 21.558-21.558 21.558z" style="fill:#f4c064"/><path d="M471.579 401.516c0 20.836-16.891 37.726-37.726 37.726H78.147c-20.836 0-37.726-16.891-37.726-37.726 0-20.836 16.891-37.726 37.726-37.726h355.705c20.836-.001 37.727 16.89 37.727 37.726z" style="fill:#99774f"/><path d="M471.579 353.01c0 23.812-19.304 43.116-43.116 43.116-14.133 0-26.67-6.806-34.531-17.313-2.017-2.696-5.218-4.245-8.584-4.245-3.367 0-6.568 1.549-8.584 4.245-7.861 10.508-20.398 17.313-34.531 17.313s-26.67-6.806-34.531-17.313c-2.017-2.696-5.218-4.245-8.584-4.245-3.367 0-6.568 1.549-8.584 4.245-7.861 10.508-20.398 17.313-34.531 17.313s-26.67-6.806-34.531-17.313c-2.017-2.696-5.218-4.245-8.584-4.245-3.367 0-6.568 1.549-8.584 4.245-7.861 10.508-20.398 17.313-34.531 17.313s-26.67-6.806-34.531-17.313c-2.017-2.696-5.218-4.245-8.584-4.245-3.367 0-6.568 1.549-8.584 4.245-7.861 10.507-20.398 17.313-34.531 17.313-23.812 0-43.116-19.304-43.116-43.116 0-41.671 33.781-75.453 75.453-75.453h280.254c41.664.001 75.445 33.782 75.445 75.453z" style="fill:#91f18b"/><path d="M471.579 299.116c0 11.906-9.651 21.558-21.558 21.558H61.979c-11.906 0-21.558-9.651-21.558-21.558 0-11.906 9.651-21.558 21.558-21.558h388.042c11.906 0 21.558 9.651 21.558 21.558z" style="fill:#ff8355"/><path d="M256 353.01a59.545 59.545 0 0 1-38.119-13.801l-112.787-93.988h301.811l-112.787 93.988A59.535 59.535 0 0 1 256 353.01z" style="fill:#ffe954"/><path d="M450.021 277.558H61.979c-11.906 0-21.558-9.651-21.558-21.558 0-83.343 67.562-150.905 150.905-150.905h129.347c83.343 0 150.905 67.562 150.905 150.905.001 11.906-9.651 21.558-21.557 21.558z" style="fill:#f4c064"/><path d="M223.663 503.916H83.537c-23.812 0-43.116-19.304-43.116-43.116 0-11.906 9.651-21.558 21.558-21.558h140.126c-11.906 0-21.558 9.651-21.558 21.558 0 23.812 19.304 43.116 43.116 43.116zm-32.337-398.821c-83.343 0-150.905 67.562-150.905 150.905 0 11.906 9.651 21.558 21.558 21.558h140.126c-11.906 0-21.558-9.651-21.558-21.558 0-83.343 67.562-150.905 150.905-150.905H191.326z" style="fill:#f4ab53"/><path d="M353.01 72.758H256V18.863h97.011c5.953 0 10.779 4.826 10.779 10.779v32.337c-.001 5.953-4.826 10.779-10.78 10.779z" style="fill:#ff8355"/><path d="M470.346 277.558c5.733-5.409 9.317-13.073 9.317-21.558 0-87.667-71.322-158.989-158.989-158.989h-32.337a8.083 8.083 0 0 0-8.084 8.084 8.084 8.084 0 0 0 8.084 8.084h32.337c78.752 0 142.821 64.069 142.821 142.821 0 7.43-6.044 13.474-13.474 13.474H299.116c-4.465 0-8.084 3.618-8.084 8.084s3.62 8.084 8.084 8.084h46.657l-34.517 28.765c-.044.036-.087.071-.13.109L288.945 333a51.558 51.558 0 0 1-32.944 11.927A51.556 51.556 0 0 1 223.057 333l-22.237-18.53-.018-.016-34.572-28.811h100.55c4.465 0 8.084-3.618 8.084-8.084s-3.62-8.084-8.084-8.084H61.979c-7.43 0-13.474-6.044-13.474-13.474 0-78.752 64.069-142.821 142.821-142.821h56.589v16.168h-24.253a8.083 8.083 0 0 0-8.084 8.084 8.084 8.084 0 0 0 8.084 8.084h53.895a8.083 8.083 0 0 0 8.084-8.084 8.084 8.084 0 0 0-8.084-8.084h-13.474V80.842h88.926c10.401 0 18.863-8.463 18.863-18.863V29.642c0-10.401-8.463-18.863-18.863-18.863h-88.926V8.084A8.081 8.081 0 0 0 256 0a8.083 8.083 0 0 0-8.084 8.084V97.01h-56.589c-87.667 0-158.989 71.322-158.989 158.989 0 8.485 3.584 16.149 9.317 21.558-5.733 5.409-9.317 13.073-9.317 21.558 0 7.479 2.785 14.322 7.373 19.543a83.792 83.792 0 0 0-7.373 34.351 50.891 50.891 0 0 0 6.503 24.953c-4.271 7.084-6.503 15.122-6.503 23.552 0 13.292 5.69 25.279 14.762 33.655-8.82 5.141-14.762 14.705-14.762 25.629 0 28.231 22.969 51.2 51.2 51.2h344.926c28.231 0 51.2-22.969 51.2-51.2 0-10.924-5.941-20.489-14.762-25.629 9.072-8.376 14.762-20.364 14.762-33.655 0-8.429-2.232-16.468-6.503-23.552a50.894 50.894 0 0 0 6.503-24.953 83.796 83.796 0 0 0-7.373-34.351c4.588-5.221 7.373-12.063 7.373-19.543-.001-8.484-3.585-16.148-9.318-21.557zM264.084 26.947h88.926a2.698 2.698 0 0 1 2.695 2.695v32.337a2.698 2.698 0 0 1-2.695 2.695h-88.926V26.947zm142.821 420.379h43.116c7.43 0 13.474 6.044 13.474 13.474 0 19.317-15.716 35.032-35.032 35.032H83.537c-19.316 0-35.032-15.715-35.032-35.032 0-7.43 6.044-13.474 13.474-13.474h312.589a8.083 8.083 0 0 0 8.084-8.084 8.084 8.084 0 0 0-8.084-8.084H78.147c-16.345 0-29.642-13.298-29.642-29.642 0-3.372.551-6.645 1.624-9.736 8.973 7.743 20.652 12.43 33.407 12.43 16.287 0 31.232-7.492 41.004-20.554.47-.628 1.259-1.004 2.112-1.004s1.642.375 2.112 1.002c9.772 13.063 24.717 20.555 41.004 20.555s31.232-7.492 41.004-20.554c.47-.628 1.259-1.004 2.112-1.004s1.642.375 2.112 1.002c9.772 13.063 24.717 20.555 41.004 20.555s31.232-7.492 41.004-20.554c.47-.628 1.259-1.004 2.112-1.004s1.642.375 2.112 1.002c9.772 13.063 24.717 20.555 41.004 20.555s31.232-7.492 41.004-20.554c.47-.628 1.259-1.004 2.112-1.004s1.642.375 2.112 1.002c9.772 13.063 24.717 20.555 41.004 20.555 12.755 0 24.434-4.688 33.407-12.43a29.575 29.575 0 0 1 1.624 9.736c0 16.344-13.297 29.642-29.642 29.642h-26.947a8.083 8.083 0 0 0-8.084 8.084 8.083 8.083 0 0 0 8.083 8.088zm10.779-118.568h32.337c2.946 0 5.794-.431 8.481-1.235a67.632 67.632 0 0 1 4.993 25.488c0 19.317-15.716 35.032-35.032 35.032-11.141 0-21.368-5.13-28.058-14.073-3.506-4.688-9.136-7.485-15.058-7.485s-11.551 2.798-15.058 7.486c-6.689 8.942-16.916 14.072-28.058 14.072s-21.368-5.13-28.058-14.073c-3.506-4.688-9.136-7.485-15.058-7.485s-11.551 2.798-15.058 7.486c-6.689 8.942-16.916 14.072-28.058 14.072-11.141 0-21.368-5.13-28.058-14.073-3.506-4.688-9.136-7.485-15.058-7.485s-11.551 2.798-15.058 7.486c-6.689 8.942-16.916 14.072-28.058 14.072-11.141 0-21.368-5.13-28.058-14.073-3.506-4.688-9.136-7.485-15.058-7.485s-11.551 2.798-15.058 7.486c-6.689 8.942-16.916 14.072-28.058 14.072-19.316 0-35.032-15.715-35.032-35.032 0-8.76 1.712-17.445 4.993-25.488a29.547 29.547 0 0 0 8.481 1.235h32.337c4.465 0 8.084-3.618 8.084-8.084s-3.62-8.084-8.084-8.084H61.979c-7.43 0-13.474-6.044-13.474-13.474s6.044-13.474 13.474-13.474h78.994l32.337 26.947h-46.657c-4.465 0-8.084 3.618-8.084 8.084s3.62 8.084 8.084 8.084h66.058l19.994 16.662a67.758 67.758 0 0 0 43.296 15.675 67.752 67.752 0 0 0 43.295-15.675l19.994-16.662h66.059c4.465 0 8.084-3.618 8.084-8.084s-3.62-8.084-8.084-8.084h-46.657l32.337-26.947h78.993c7.43 0 13.474 6.044 13.474 13.474s-6.044 13.474-13.474 13.474h-32.337c-4.465 0-8.084 3.618-8.084 8.084s3.619 8.084 8.083 8.084zM353.01 204.8c4.465 0 8.084 3.618 8.084 8.084s-3.62 8.084-8.084 8.084h-10.779c-4.465 0-8.084-3.618-8.084-8.084s3.62-8.084 8.084-8.084h10.779zm53.895 21.558h10.779c4.465 0 8.084 3.618 8.084 8.084s-3.62 8.084-8.084 8.084h-10.779c-4.465 0-8.084-3.618-8.084-8.084s3.62-8.084 8.084-8.084zm-43.116-59.284a8.083 8.083 0 0 1-8.084-8.084 8.084 8.084 0 0 1 8.084-8.084h10.779a8.083 8.083 0 0 1 8.084 8.084 8.084 8.084 0 0 1-8.084 8.084h-10.779zm51.2 24.252a8.084 8.084 0 0 1-8.084 8.084h-10.779c-4.465 0-8.084-3.618-8.084-8.084s3.62-8.084 8.084-8.084h10.779a8.084 8.084 0 0 1 8.084 8.084z"/></svg>