<svg xmlns="http://www.w3.org/2000/svg" width="68" height="68" fill="none"><path fill="#fff" d="m53.121 15.326 5.576-.176v19.73H51.97l1.15-19.554Z"/><ellipse cx="35.952" cy="49.327" fill="#fff" rx="6.638" ry="8.456"/><path fill="#fff" d="M23.774 21.756c0 4.67-3.237 3.876-6.903 3.876-3.666 0-6.106-1.233-6.106-2.907 0-4.67 2.706-5.285 6.372-5.285 3.665 0 6.637-.354 6.637 4.316Z"/><path fill="#FF7020" d="M7.467 6.583a3.683 3.683 0 0 0-.98.871l-.392.56v13.955l.34.872c1.228 3.134 3.868 5.215 7.043 5.54l.85.091.065 15.738.065 15.738.287.468c.17.26.55.637.85.845.483.338.653.377 1.542.377.875 0 1.058-.038 1.516-.35.274-.196.653-.573.836-.846l.327-.481.065-15.738.066-15.75.849-.092c3.254-.325 6.102-2.653 7.096-5.762.287-.897.287-1.04.287-7.751V8.026l-.353-.507c-.575-.806-1.176-1.144-2.182-1.197-1.072-.052-1.843.3-2.43 1.132l-.393.56-.065 3.264-.065 3.277h-2.744l-.066-3.264c-.065-3.213-.065-3.265-.392-3.733-.549-.82-1.215-1.183-2.208-1.236-1.072-.052-1.843.3-2.43 1.132l-.393.56-.065 3.264-.066 3.277h-2.744l-.065-3.264-.066-3.265-.352-.507c-.575-.806-1.176-1.144-2.183-1.197-.718-.039-.967.013-1.45.26Zm15.158 13.89c0 .794-.64 1.665-1.568 2.16-.418.22-.784.247-3.92.247-3.293 0-3.49-.013-3.986-.287-.888-.468-1.502-1.34-1.502-2.12v-.39h10.976v.39ZM34.556 6.583a3.681 3.681 0 0 0-.98.871l-.392.56-.065 14.501-.065 14.502-1.098.326c-2.744.78-4.796 2.419-5.946 4.721-1.006 2.042-1.176 2.887-1.176 5.853 0 2.172.04 2.692.274 3.642 1.281 5.033 4.117 8.467 8.076 9.78.771.248 1.19.3 2.68.3 1.489 0 1.907-.053 2.678-.3 3.96-1.313 6.795-4.747 8.076-9.78.235-.95.274-1.47.274-3.642 0-2.185-.039-2.68-.287-3.577-.98-3.603-3.32-5.996-6.835-6.997l-1.097-.326-.066-14.489-.065-14.502-.353-.507c-.575-.806-1.176-1.144-2.182-1.197-.719-.039-.967.013-1.45.26Zm3.881 36.131c1.464.495 2.418 1.626 2.784 3.265.248 1.131.104 3.967-.261 5.124-.68 2.133-1.974 3.928-3.372 4.63-.876.443-2.561.456-3.424.014-1.49-.768-2.692-2.432-3.423-4.709-.262-.858-.301-1.235-.301-3.121 0-2.094.013-2.16.379-2.966.653-1.404 1.986-2.315 3.737-2.549 0 0 3.071.052 3.881.312ZM59.752 6.53c-1.673.872-4.26 3.24-5.855 5.333-3.972 5.268-6.285 12.707-6.821 22.007-.196 3.408-.105 3.915.797 4.812.876.872 1.11.91 6.077.91h4.26v20.122l.3.546c.157.312.549.741.863.975.51.364.64.404 1.568.404.888 0 1.071-.04 1.529-.352.274-.195.653-.572.836-.845l.327-.481V8.026l-.353-.507c-.575-.82-1.176-1.144-2.183-1.197-.653-.026-.98.013-1.346.209Zm-1.543 18.235V34h-5.527l.091-1.34c.236-3.576 1.111-7.894 2.248-11.081.758-2.107 2.797-6.048 3.123-6.048.04 0 .066 4.149.066 9.234Z"/></svg>