<svg xmlns="http://www.w3.org/2000/svg" width="35" height="35" fill="none">
<path fill="#FFA132" d="m27.06 8.163 2.787-.088v9.865h-3.363l.576-9.777Z"/>
<ellipse cx="18.475" cy="25.163" fill="#FFA132" rx="3.319" ry="4.228"/>
<path fill="#FFA132" d="M12.387 11.378c0 2.335-1.619 1.938-3.452 1.938s-3.053-.617-3.053-1.454c0-2.335 
1.353-2.642 3.186-2.642s3.319-.177 3.319 2.158Z"/>
<path fill="#fff" d="M4.233 3.791a1.841 1.841 0 0 0-.49.436l-.196.28v6.978l.17.435c.614 1.568 1.934 
2.608 3.521 2.77l.425.046.033 7.869.033 7.869.143.234c.085.13.275.319.425.423.242.169.327.188.771.188.438 
0 .53-.02.758-.175a1.98 1.98 0 0 0 .418-.423l.163-.24.033-7.87.033-7.875.424-.045c1.627-.163 3.052-1.327 
3.548-2.881.144-.449.144-.52.144-3.876v-3.42l-.176-.254c-.288-.404-.588-.573-1.091-.599-.536-.026-.922.15-1.216.566l-.196.28-.033 1.632-.032 
1.639h-1.372l-.033-1.633c-.033-1.606-.033-1.632-.196-1.866-.274-.41-.608-.592-1.104-.618-.536-.026-.921.15-1.215.566l-.196.28-.033 1.632-.033 
1.639H6.291l-.033-1.633-.032-1.632-.177-.253c-.287-.404-.588-.573-1.09-.599-.36-.02-.484.007-.726.13Zm7.58 
6.946c0 .396-.321.832-.785 1.08-.209.11-.392.123-1.96.123-1.647 0-1.745-.007-1.993-.143-.444-.234-.751-.67-.751-1.06v-.195h5.488v.195ZM17.777 
3.791a1.839 1.839 0 0 0-.49.436l-.196.28-.033 7.25-.032 7.252-.549.162c-1.372.39-2.398 1.21-2.973 2.361-.503 1.021-.588 1.444-.588 
2.926 0 1.086.02 1.347.137 1.821.64 2.517 2.058 4.234 4.038 4.89.386.124.595.15 1.34.15.744 0 .953-.026 1.339-.15 1.98-.656 
3.398-2.373 4.038-4.89.117-.474.137-.735.137-1.82 
0-1.093-.02-1.34-.144-1.789-.49-1.801-1.66-2.998-3.417-3.499l-.549-.162-.032-7.245-.033-7.25-.176-.254c-.288-.404
-.588-.573-1.092-.599-.359-.02-.483.007-.725.13Zm1.94 18.066c.733.247 1.21.813 1.392 1.632.125.566.053 1.984-.13 
2.563-.34 1.066-.987 1.964-1.686 2.315-.438.22-1.28.227-1.712.006-.745-.383-1.346-1.216-1.712-2.354-.13-.429-.15-.618
-.15-1.56 0-1.048.007-1.08.19-1.483.326-.703.993-1.158 1.868-1.275 0 0 1.536.026 1.94.156ZM30.375 3.765c-.837.436-2.13 
1.62-2.927 2.667-1.987 2.633-3.143 6.353-3.411 11.003-.098 1.704-.052 1.957.399 2.406.437.436.555.455 
3.038.455h2.13v10.061l.15.273c.078.156.274.37.431.488.255.182.32.201.784.201.445 0 .536-.02.765-.175a1.98 1.98 
0 0 0 .418-.423l.163-.24V4.512l-.176-.253c-.288-.41-.588-.573-1.091-.599-.327-.013-.49.007-.673.104Zm-.771 
9.118V17.5H26.84l.046-.67c.117-1.788.555-3.947 1.123-5.54.38-1.054 1.399-3.025 1.562-3.025.02 0 .033 2.075.033 4.618Z"/>
</svg>